<mxfile host="app.diagrams.net" agent="Mozilla/5.0 (Windows NT 10.0; Win64; x64) AppleWebKit/537.36 (KHTML, like Gecko) Chrome/133.0.0.0 Safari/537.36" version="26.0.16">
  <diagram name="PÃ¡gina-1" id="DXHgDOncCVDYHQHvxnaQ">
    <mxGraphModel dx="1688" dy="602" grid="1" gridSize="10" guides="1" tooltips="1" connect="1" arrows="1" fold="1" page="1" pageScale="1" pageWidth="827" pageHeight="1169" math="0" shadow="0">
      <root>
        <mxCell id="0" />
        <mxCell id="1" parent="0" />
        <mxCell id="MZKyoh_84TZsxSJjxajs-15" value="" style="group" vertex="1" connectable="0" parent="1">
          <mxGeometry x="70" y="230" width="270" height="20" as="geometry" />
        </mxCell>
        <mxCell id="MZKyoh_84TZsxSJjxajs-3" value="" style="rounded=0;whiteSpace=wrap;html=1;" vertex="1" parent="MZKyoh_84TZsxSJjxajs-15">
          <mxGeometry width="22.5" height="20" as="geometry" />
        </mxCell>
        <mxCell id="MZKyoh_84TZsxSJjxajs-4" value="" style="rounded=0;whiteSpace=wrap;html=1;fillColor=#f5f5f5;fontColor=#333333;strokeColor=#666666;" vertex="1" parent="MZKyoh_84TZsxSJjxajs-15">
          <mxGeometry x="22.5" width="22.5" height="20" as="geometry" />
        </mxCell>
        <mxCell id="MZKyoh_84TZsxSJjxajs-5" value="" style="rounded=0;whiteSpace=wrap;html=1;" vertex="1" parent="MZKyoh_84TZsxSJjxajs-15">
          <mxGeometry x="45" width="22.5" height="20" as="geometry" />
        </mxCell>
        <mxCell id="MZKyoh_84TZsxSJjxajs-6" value="" style="rounded=0;whiteSpace=wrap;html=1;fillColor=#f5f5f5;fontColor=#333333;strokeColor=#666666;" vertex="1" parent="MZKyoh_84TZsxSJjxajs-15">
          <mxGeometry x="67.5" width="22.5" height="20" as="geometry" />
        </mxCell>
        <mxCell id="MZKyoh_84TZsxSJjxajs-7" value="" style="rounded=0;whiteSpace=wrap;html=1;" vertex="1" parent="MZKyoh_84TZsxSJjxajs-15">
          <mxGeometry x="90" width="22.5" height="20" as="geometry" />
        </mxCell>
        <mxCell id="MZKyoh_84TZsxSJjxajs-8" value="" style="rounded=0;whiteSpace=wrap;html=1;fillColor=#f5f5f5;fontColor=#333333;strokeColor=#666666;" vertex="1" parent="MZKyoh_84TZsxSJjxajs-15">
          <mxGeometry x="112.49999999999999" width="22.5" height="20" as="geometry" />
        </mxCell>
        <mxCell id="MZKyoh_84TZsxSJjxajs-9" value="" style="rounded=0;whiteSpace=wrap;html=1;" vertex="1" parent="MZKyoh_84TZsxSJjxajs-15">
          <mxGeometry x="135" width="22.5" height="20" as="geometry" />
        </mxCell>
        <mxCell id="MZKyoh_84TZsxSJjxajs-10" value="" style="rounded=0;whiteSpace=wrap;html=1;fillColor=#f5f5f5;fontColor=#333333;strokeColor=#666666;" vertex="1" parent="MZKyoh_84TZsxSJjxajs-15">
          <mxGeometry x="157.5" width="22.5" height="20" as="geometry" />
        </mxCell>
        <mxCell id="MZKyoh_84TZsxSJjxajs-11" value="" style="rounded=0;whiteSpace=wrap;html=1;" vertex="1" parent="MZKyoh_84TZsxSJjxajs-15">
          <mxGeometry x="180" width="22.5" height="20" as="geometry" />
        </mxCell>
        <mxCell id="MZKyoh_84TZsxSJjxajs-12" value="" style="rounded=0;whiteSpace=wrap;html=1;fillColor=#f5f5f5;fontColor=#333333;strokeColor=#666666;" vertex="1" parent="MZKyoh_84TZsxSJjxajs-15">
          <mxGeometry x="202.5" width="22.5" height="20" as="geometry" />
        </mxCell>
        <mxCell id="MZKyoh_84TZsxSJjxajs-13" value="" style="rounded=0;whiteSpace=wrap;html=1;" vertex="1" parent="MZKyoh_84TZsxSJjxajs-15">
          <mxGeometry x="224.99999999999997" width="22.5" height="20" as="geometry" />
        </mxCell>
        <mxCell id="MZKyoh_84TZsxSJjxajs-14" value="" style="rounded=0;whiteSpace=wrap;html=1;fillColor=#f5f5f5;fontColor=#333333;strokeColor=#666666;" vertex="1" parent="MZKyoh_84TZsxSJjxajs-15">
          <mxGeometry x="247.50000000000003" width="22.5" height="20" as="geometry" />
        </mxCell>
        <mxCell id="MZKyoh_84TZsxSJjxajs-16" value="" style="group" vertex="1" connectable="0" parent="1">
          <mxGeometry x="340" y="230" width="270" height="20" as="geometry" />
        </mxCell>
        <mxCell id="MZKyoh_84TZsxSJjxajs-17" value="" style="rounded=0;whiteSpace=wrap;html=1;" vertex="1" parent="MZKyoh_84TZsxSJjxajs-16">
          <mxGeometry width="22.5" height="20" as="geometry" />
        </mxCell>
        <mxCell id="MZKyoh_84TZsxSJjxajs-18" value="" style="rounded=0;whiteSpace=wrap;html=1;fillColor=#f5f5f5;fontColor=#333333;strokeColor=#666666;" vertex="1" parent="MZKyoh_84TZsxSJjxajs-16">
          <mxGeometry x="22.5" width="22.5" height="20" as="geometry" />
        </mxCell>
        <mxCell id="MZKyoh_84TZsxSJjxajs-19" value="" style="rounded=0;whiteSpace=wrap;html=1;" vertex="1" parent="MZKyoh_84TZsxSJjxajs-16">
          <mxGeometry x="45" width="22.5" height="20" as="geometry" />
        </mxCell>
        <mxCell id="MZKyoh_84TZsxSJjxajs-20" value="" style="rounded=0;whiteSpace=wrap;html=1;fillColor=#f5f5f5;fontColor=#333333;strokeColor=#666666;" vertex="1" parent="MZKyoh_84TZsxSJjxajs-16">
          <mxGeometry x="67.5" width="22.5" height="20" as="geometry" />
        </mxCell>
        <mxCell id="MZKyoh_84TZsxSJjxajs-21" value="" style="rounded=0;whiteSpace=wrap;html=1;" vertex="1" parent="MZKyoh_84TZsxSJjxajs-16">
          <mxGeometry x="90" width="22.5" height="20" as="geometry" />
        </mxCell>
        <mxCell id="MZKyoh_84TZsxSJjxajs-22" value="" style="rounded=0;whiteSpace=wrap;html=1;fillColor=#f5f5f5;fontColor=#333333;strokeColor=#666666;" vertex="1" parent="MZKyoh_84TZsxSJjxajs-16">
          <mxGeometry x="112.49999999999999" width="22.5" height="20" as="geometry" />
        </mxCell>
        <mxCell id="MZKyoh_84TZsxSJjxajs-23" value="" style="rounded=0;whiteSpace=wrap;html=1;" vertex="1" parent="MZKyoh_84TZsxSJjxajs-16">
          <mxGeometry x="135" width="22.5" height="20" as="geometry" />
        </mxCell>
        <mxCell id="MZKyoh_84TZsxSJjxajs-24" value="" style="rounded=0;whiteSpace=wrap;html=1;fillColor=#f5f5f5;fontColor=#333333;strokeColor=#666666;" vertex="1" parent="MZKyoh_84TZsxSJjxajs-16">
          <mxGeometry x="157.5" width="22.5" height="20" as="geometry" />
        </mxCell>
        <mxCell id="MZKyoh_84TZsxSJjxajs-25" value="" style="rounded=0;whiteSpace=wrap;html=1;" vertex="1" parent="MZKyoh_84TZsxSJjxajs-16">
          <mxGeometry x="180" width="22.5" height="20" as="geometry" />
        </mxCell>
        <mxCell id="MZKyoh_84TZsxSJjxajs-26" value="" style="rounded=0;whiteSpace=wrap;html=1;fillColor=#f5f5f5;fontColor=#333333;strokeColor=#666666;" vertex="1" parent="MZKyoh_84TZsxSJjxajs-16">
          <mxGeometry x="202.5" width="22.5" height="20" as="geometry" />
        </mxCell>
        <mxCell id="MZKyoh_84TZsxSJjxajs-27" value="" style="rounded=0;whiteSpace=wrap;html=1;" vertex="1" parent="MZKyoh_84TZsxSJjxajs-16">
          <mxGeometry x="224.99999999999997" width="22.5" height="20" as="geometry" />
        </mxCell>
        <mxCell id="MZKyoh_84TZsxSJjxajs-28" value="" style="rounded=0;whiteSpace=wrap;html=1;fillColor=#f5f5f5;fontColor=#333333;strokeColor=#666666;" vertex="1" parent="MZKyoh_84TZsxSJjxajs-16">
          <mxGeometry x="247.50000000000003" width="22.5" height="20" as="geometry" />
        </mxCell>
        <mxCell id="MZKyoh_84TZsxSJjxajs-30" value="" style="rounded=0;whiteSpace=wrap;html=1;" vertex="1" parent="1">
          <mxGeometry x="70" y="320" width="10" height="30" as="geometry" />
        </mxCell>
        <mxCell id="MZKyoh_84TZsxSJjxajs-31" value="Unmute&amp;nbsp;&lt;div&gt;set freq&lt;/div&gt;&lt;div&gt;note time&lt;/div&gt;" style="text;html=1;align=center;verticalAlign=middle;whiteSpace=wrap;rounded=0;" vertex="1" parent="1">
          <mxGeometry x="45" y="360" width="60" height="30" as="geometry" />
        </mxCell>
        <mxCell id="MZKyoh_84TZsxSJjxajs-32" value="" style="rounded=0;whiteSpace=wrap;html=1;" vertex="1" parent="1">
          <mxGeometry x="210" y="320" width="10" height="30" as="geometry" />
        </mxCell>
        <mxCell id="MZKyoh_84TZsxSJjxajs-33" value="mute" style="text;html=1;align=center;verticalAlign=middle;whiteSpace=wrap;rounded=0;" vertex="1" parent="1">
          <mxGeometry x="185" y="360" width="60" height="30" as="geometry" />
        </mxCell>
        <mxCell id="MZKyoh_84TZsxSJjxajs-34" value="" style="rounded=0;whiteSpace=wrap;html=1;" vertex="1" parent="1">
          <mxGeometry x="245" y="320" width="10" height="30" as="geometry" />
        </mxCell>
        <mxCell id="MZKyoh_84TZsxSJjxajs-35" value="Unmute&amp;nbsp;&lt;div&gt;set freq&lt;/div&gt;&lt;div&gt;note time&lt;/div&gt;" style="text;html=1;align=center;verticalAlign=middle;whiteSpace=wrap;rounded=0;" vertex="1" parent="1">
          <mxGeometry x="220" y="360" width="60" height="30" as="geometry" />
        </mxCell>
        <mxCell id="MZKyoh_84TZsxSJjxajs-36" value="" style="rounded=0;whiteSpace=wrap;html=1;" vertex="1" parent="1">
          <mxGeometry x="385" y="320" width="10" height="30" as="geometry" />
        </mxCell>
        <mxCell id="MZKyoh_84TZsxSJjxajs-37" value="mute" style="text;html=1;align=center;verticalAlign=middle;whiteSpace=wrap;rounded=0;" vertex="1" parent="1">
          <mxGeometry x="360" y="360" width="60" height="30" as="geometry" />
        </mxCell>
      </root>
    </mxGraphModel>
  </diagram>
</mxfile>
